<svg xmlns="http://www.w3.org/2000/svg" viewBox="0 0 64 64" width="64" height="64" role="img" aria-label="SecureLens AI"><title>SecureLens AI</title><defs><mask id="cm"><rect width="64" height="64" fill="#fff"/><circle cx="32" cy="32" r="12.299999999999999" fill="#000"/></mask></defs><g mask="url(#cm)"><path d="M17.350 48.919A15.8 15.8 0 1 0 32.000 27.200L32.000 36.200A6.8 6.8 0 1 1 26.642 47.186Z" fill="#E8EEF9"/><path d="M46.650 15.081A15.8 15.8 0 1 0 32.000 36.800L32.000 27.800A6.8 6.8 0 1 1 37.358 16.814Z" fill="#E8EEF9"/></g><circle cx="32" cy="32" r="10.6" fill="#0B1B36"/><circle cx="32" cy="32" r="9.4" fill="none" stroke="#5CC8FF" stroke-width="1.2"/><g fill="none" stroke="#E8F4FF" stroke-width="2.2" stroke-linecap="round" stroke-linejoin="round"><path d="M27.760 28.396L25.004 32.000L27.760 35.604"/><path d="M33.484 27.760L30.516 36.240"/><path d="M36.240 28.396L38.996 32.000L36.240 35.604"/></g></svg>
